<?xml version="1.0" encoding="utf-8"?>
<!-- Generator: Adobe Illustrator 21.0.2, SVG Export Plug-In . SVG Version: 6.00 Build 0)  -->
<svg version="1.1" id="Layer_1" xmlns="http://www.w3.org/2000/svg" xmlns:xlink="http://www.w3.org/1999/xlink" x="0px" y="0px"
	 viewBox="0 0 109.5 111.5" style="enable-background:new 0 0 109.5 111.5;" xml:space="preserve">
<style type="text/css">
	.st0{fill:none;}
	.st1{fill:#FFFFFF;}
</style>
<g>
	<polygon class="st0" points="10,101.5 75,101.5 75,40 44.5,71 39.5,66 68.7,36.5 10,36.5 	"/>
	<polygon class="st1" points="75,101.5 10,101.5 10,36.5 68.7,36.5 78.5,26.5 0,26.5 0,111.5 85,111.5 85,43.9 75,54 	"/>
	<polygon class="st1" points="44.5,71 75,40 75,36.5 68.7,36.5 39.5,66 	"/>
	<polygon class="st1" points="81.5,0 81.5,7 97.7,7 78.5,26.5 85,26.5 85,29.9 102.5,12.1 102.5,27.2 109.5,27.2 109.5,7 109.5,3 
		109.5,0 	"/>
	<polygon class="st1" points="78.5,26.5 68.7,36.5 75,36.5 75,40 85,29.9 85,26.5 	"/>
</g>
</svg>
