<?xml version="1.0" encoding="utf-8"?>
<!-- Generator: Adobe Illustrator 21.0.2, SVG Export Plug-In . SVG Version: 6.00 Build 0)  -->
<svg version="1.1" id="Layer_1" xmlns="http://www.w3.org/2000/svg" xmlns:xlink="http://www.w3.org/1999/xlink" x="0px" y="0px"
	 viewBox="0 0 629 156" style="enable-background:new 0 0 629 156;" xml:space="preserve">
<style type="text/css">
	.st0{fill:#99001A;}
	.st1{fill:#CC002C;}
	.st2{fill:#FFFFFF;}
</style>
<g>
	<g>
		<path class="st0" d="M102.1,155.9H0.4V-0.3h101.7V155.9z M7.7,148.6h87.2V7H7.7V148.6z"/>
	</g>
	<g>
		<g>
			<path class="st1" d="M20,84.4c0.3,0,0.5,0,0.7,0.1c0.2,0.1,0.3,0.1,0.4,0.2c0.1,0.1,0.2,0.2,0.2,0.3c0,0.2,0.1,0.3,0.1,0.4
				c0,0.1,0,0.3,0,0.5v8.9c0,0.2,0,0.4,0,0.5c0,0.1-0.1,0.3-0.2,0.4c-0.1,0.2-0.2,0.3-0.4,0.3c-0.2,0.1-0.5,0.1-0.8,0.1
				c-0.3,0-0.6,0-0.8-0.1c-0.2-0.1-0.3-0.2-0.4-0.3c-0.1-0.2-0.1-0.3-0.2-0.4c0-0.1,0-0.3,0-0.6V89l-0.2,0.2
				c-0.4,0.3-0.8,0.5-1.1,0.5c-0.3,0-0.6-0.2-0.9-0.5c-0.4-0.4-0.6-0.8-0.6-1.1c0-0.3,0.2-0.6,0.6-0.9l2.6-2.4l0,0
				C19.3,84.5,19.6,84.4,20,84.4z"/>
			<path class="st1" d="M23.6,112.3c0.3,0,0.4,0,0.6,0c0.1,0,0.3,0.1,0.4,0.2c0.1,0.1,0.3,0.2,0.3,0.4c0.1,0.2,0.1,0.5,0.1,0.8
				c0,0.3,0,0.6-0.1,0.8c-0.1,0.2-0.2,0.3-0.3,0.4c-0.2,0.1-0.3,0.1-0.4,0.2c-0.1,0-0.3,0-0.6,0h-6.2c-0.4,0-0.7-0.1-1-0.4
				c-0.3-0.3-0.4-0.6-0.4-1c0-0.6,0.2-1.1,0.6-1.6c0.4-0.5,0.9-0.9,1.4-1.2c0.6-0.3,1.1-0.7,1.7-1c0.6-0.3,1-0.7,1.4-1.1
				c0.4-0.4,0.6-0.9,0.6-1.4c0,0,0-0.1,0-0.1c0-0.1,0-0.2-0.1-0.3c-0.1-0.1-0.1-0.3-0.2-0.4c-0.1-0.1-0.2-0.2-0.4-0.3
				c-0.2-0.1-0.4-0.1-0.7-0.1c-0.4,0-0.8,0.1-1,0.4c-0.2,0.2-0.4,0.5-0.4,0.7l-0.1,0.4v0.1c0,0.2,0,0.4,0,0.5c0,0.1-0.1,0.2-0.2,0.4
				c-0.1,0.1-0.2,0.2-0.4,0.3c-0.2,0.1-0.5,0.1-0.8,0.1c-0.3,0-0.5,0-0.7-0.1c-0.2-0.1-0.3-0.1-0.4-0.2c-0.1-0.1-0.2-0.2-0.2-0.3
				c0-0.1-0.1-0.3-0.1-0.4c0-0.1,0-0.3,0-0.5c0-1.1,0.4-2.1,1.2-3c0.8-0.9,1.8-1.3,3.1-1.3c1.3,0,2.3,0.4,3.1,1.3
				c0.8,0.9,1.2,1.9,1.2,3c0,0.6-0.1,1.2-0.4,1.7c-0.3,0.5-0.6,1-1,1.3c-0.4,0.3-0.8,0.6-1.1,0.9c-0.4,0.2-0.7,0.4-1,0.5l-0.4,0.2
				v0.1H23.6z"/>
			<path class="st1" d="M24.8,130.5c0,1.1-0.4,2.1-1.3,2.8c-0.8,0.7-1.9,1.1-3.2,1.1c-0.5,0-0.9-0.1-1.4-0.2c-0.4-0.1-0.8-0.2-1-0.4
				c-0.3-0.2-0.5-0.3-0.8-0.5c-0.2-0.2-0.4-0.4-0.5-0.6c-0.1-0.2-0.2-0.4-0.3-0.5c-0.1-0.2-0.1-0.3-0.2-0.4l0-0.2
				c-0.1-0.3-0.2-0.6-0.2-0.9c0-0.6,0.5-0.9,1.6-0.9c0.4,0,0.7,0.1,0.8,0.2c0.1,0.1,0.3,0.3,0.4,0.6l0,0.1c0,0,0,0.1,0,0.1
				s0.1,0.1,0.1,0.2c0.1,0.1,0.2,0.2,0.3,0.3c0.1,0.1,0.3,0.2,0.5,0.2c0.2,0.1,0.4,0.1,0.7,0.1c0.6,0,1-0.1,1.2-0.3
				c0.3-0.2,0.4-0.5,0.4-0.8c0-0.3-0.1-0.5-0.4-0.7c-0.3-0.2-0.6-0.3-1.1-0.3c-0.2,0-0.4,0-0.6,0c-0.1,0-0.3-0.1-0.4-0.2
				c-0.2-0.1-0.3-0.2-0.3-0.4s-0.1-0.5-0.1-0.8c0-0.3,0-0.5,0.1-0.7c0.1-0.2,0.1-0.3,0.2-0.4c0.1-0.1,0.2-0.2,0.3-0.2
				c0.1,0,0.3-0.1,0.4-0.1c0.1,0,0.3,0,0.5,0c0.8,0,1.2-0.2,1.2-0.6c0-0.2-0.1-0.4-0.3-0.6c-0.2-0.2-0.5-0.3-0.9-0.3
				c-0.3,0-0.6,0.1-0.8,0.2s-0.4,0.3-0.4,0.4l-0.1,0.2c-0.2,0.5-0.6,0.8-1,0.8c-0.3,0-0.6-0.1-0.9-0.3c-0.5-0.3-0.8-0.7-0.8-1.1
				c0-0.2,0.1-0.5,0.3-0.9c0-0.1,0.1-0.1,0.1-0.2c0-0.1,0.2-0.3,0.3-0.5c0.2-0.2,0.4-0.4,0.7-0.6c0.2-0.2,0.6-0.3,1-0.5
				c0.5-0.1,1-0.2,1.5-0.2c1.3,0,2.3,0.4,3.1,1.1c0.8,0.7,1.1,1.6,1.1,2.5c0,0.3,0,0.6-0.1,0.8c-0.1,0.2-0.2,0.4-0.3,0.6
				s-0.2,0.3-0.4,0.4c-0.1,0.1-0.2,0.2-0.3,0.2l-0.1,0.1v0.1c0,0,0.1,0.1,0.2,0.1c0.1,0,0.2,0.1,0.4,0.3c0.2,0.1,0.3,0.3,0.5,0.5
				c0.1,0.2,0.3,0.4,0.4,0.7C24.8,129.9,24.8,130.2,24.8,130.5z"/>
		</g>
		<path class="st1" d="M82.7,96.1H34.1c-0.7,0-1.2-0.5-1.2-1.2v-8.5c0-0.7,0.5-1.2,1.2-1.2h48.6c0.7,0,1.2,0.5,1.2,1.2v8.5
			C84,95.6,83.4,96.1,82.7,96.1z"/>
		<path class="st1" d="M82.7,114.7H34.1c-0.7,0-1.2-0.5-1.2-1.2V105c0-0.7,0.5-1.2,1.2-1.2h48.6c0.7,0,1.2,0.5,1.2,1.2v8.5
			C84,114.2,83.4,114.7,82.7,114.7z"/>
		<path class="st1" d="M82.7,134H34.1c-0.7,0-1.2-0.5-1.2-1.2v-8.5c0-0.7,0.5-1.2,1.2-1.2h48.6c0.7,0,1.2,0.5,1.2,1.2v8.5
			C84,133.5,83.4,134,82.7,134z"/>
	</g>
	<g id="Qal1Qi_1_">
		<g>
			<path class="st2" d="M54.9,55.1c-0.8,5.8-1.7,11.5-2.5,17.3c-0.3,0-0.5,0-0.8,0.1C50.8,66.7,49.9,61,49,55.1
				c-10.4-2-17.7-7.9-19.2-19.2c-1.1-8,2.5-14.4,9.1-19.1c-5.3,5.6-7.8,12-5.5,19.7c2.2,7.1,9,12.7,16.1,13c0-2.2,0.2-4.5-0.1-6.7
				c-0.2-1-1.5-1.8-2.3-2.7c3.2,0,6.6,0,10,0c-1.7,0.8-3,1.7-2.7,4c0.2,1.7,0,3.5,0,5.3c5.8,0.2,12.6-4.7,15.4-10.9
				c3.2-7.2,1.6-14.5-4.9-21.4c5,1.7,9.5,10.1,9.3,17.5C74,44.6,67.3,51.6,54.9,55.1z"/>
		</g>
	</g>
</g>
<g>
	<path class="st2" d="M190.1,130v-26.5c-3.7,3.8-7.9,5.7-12.7,5.7c-5.4,0-10-2-13.6-6c-3.6-4-5.4-9.1-5.4-15.1
		c0-6.1,1.8-11.3,5.4-15.4c3.6-4.1,8.2-6.1,13.7-6.1c4.7,0,8.8,1.8,12.5,5.5v-4.4h9.4V130H190.1z M168,87.6c0,3.9,1.1,7.1,3.2,9.5
		c2.1,2.5,4.8,3.7,8,3.7c3.4,0,6.2-1.2,8.3-3.6c2.2-2.4,3.2-5.5,3.2-9.4c0-3.8-1.1-6.9-3.2-9.4c-2.1-2.4-4.9-3.6-8.3-3.6
		c-3.2,0-5.9,1.2-8,3.6C169,81.1,168,84.1,168,87.6z"/>
	<path class="st2" d="M221.5,67.7v23.2c0,6.7,2.6,10,7.9,10c5.3,0,7.9-3.3,7.9-10V67.7h9.3V91c0,3.2-0.4,6-1.2,8.4
		c-0.8,2.1-2.1,4-4,5.7c-3.2,2.7-7.2,4.1-12,4.1c-4.8,0-8.8-1.4-12-4.1c-1.9-1.7-3.3-3.6-4.1-5.7c-0.8-1.9-1.2-4.7-1.2-8.4V67.7
		H221.5z"/>
	<path class="st2" d="M288.3,67.7h9.4V108h-9.4v-4.2c-3.8,3.6-8,5.4-12.4,5.4c-5.6,0-10.2-2-13.9-6.1c-3.6-4.1-5.4-9.3-5.4-15.4
		c0-6.1,1.8-11.1,5.4-15.1c3.6-4,8.2-6.1,13.6-6.1c4.7,0,8.9,1.9,12.6,5.8V67.7z M266.1,87.7c0,3.9,1,7,3.1,9.5
		c2.1,2.5,4.8,3.7,8,3.7c3.5,0,6.2-1.2,8.4-3.6c2.1-2.5,3.2-5.6,3.2-9.4c0-3.8-1.1-6.9-3.2-9.4c-2.1-2.4-4.9-3.6-8.3-3.6
		c-3.2,0-5.9,1.2-8,3.6C267.2,81.1,266.1,84.1,266.1,87.7z"/>
	<path class="st2" d="M318.7,38v42.7l13.1-13.1h12.5l-17.5,17l18.8,23.4h-12.1l-13.4-17l-1.5,1.5V108h-9.3V38H318.7z"/>
	<path class="st2" d="M387.1,90h-28.9c0.2,3.3,1.3,6,3.2,7.9c1.9,1.9,4.4,2.9,7.3,2.9c2.3,0,4.2-0.6,5.8-1.7
		c1.5-1.1,3.2-3.2,5.1-6.1l7.9,4.4c-1.2,2.1-2.5,3.9-3.9,5.3c-1.4,1.5-2.8,2.7-4.4,3.6c-1.5,1-3.2,1.7-5,2.1
		c-1.8,0.4-3.7,0.7-5.8,0.7c-6,0-10.9-1.9-14.5-5.8c-3.6-3.9-5.5-9.1-5.5-15.5c0-6.4,1.8-11.6,5.3-15.5c3.6-3.9,8.3-5.8,14.2-5.8
		c5.9,0,10.6,1.9,14.1,5.7c3.4,3.8,5.1,9,5.1,15.6L387.1,90z M377.6,82.4c-1.3-5-4.4-7.5-9.4-7.5c-1.1,0-2.2,0.2-3.2,0.5
		c-1,0.3-1.9,0.8-2.7,1.5c-0.8,0.6-1.5,1.4-2.1,2.3c-0.6,0.9-1,1.9-1.3,3.1H377.6z"/>
	<path class="st2" d="M447,74.5l-7.7,4.1c-1.2-2.5-2.7-3.7-4.5-3.7c-0.9,0-1.6,0.3-2.2,0.9c-0.6,0.6-0.9,1.3-0.9,2.2
		c0,1.5,1.8,3.1,5.4,4.6c4.9,2.1,8.3,4.1,10,5.9c1.7,1.8,2.6,4.2,2.6,7.3c0,3.9-1.4,7.2-4.3,9.8c-2.8,2.5-6.2,3.7-10.1,3.7
		c-6.8,0-11.6-3.3-14.4-9.9l8-3.7c1.1,1.9,1.9,3.2,2.5,3.7c1.1,1.1,2.5,1.6,4.1,1.6c3.2,0,4.7-1.4,4.7-4.3c0-1.7-1.2-3.2-3.6-4.6
		c-0.9-0.5-1.9-0.9-2.8-1.4c-0.9-0.4-1.9-0.9-2.9-1.4c-2.7-1.3-4.6-2.7-5.7-4c-1.4-1.7-2.1-3.9-2.1-6.5c0-3.5,1.2-6.4,3.6-8.7
		c2.5-2.3,5.4-3.4,9-3.4C440.7,66.5,444.5,69.2,447,74.5z"/>
	<path class="st2" d="M494.8,90h-28.9c0.2,3.3,1.3,6,3.2,7.9c1.9,1.9,4.4,2.9,7.3,2.9c2.3,0,4.2-0.6,5.8-1.7
		c1.5-1.1,3.2-3.2,5.1-6.1l7.9,4.4c-1.2,2.1-2.5,3.9-3.9,5.3c-1.4,1.5-2.8,2.7-4.4,3.6c-1.5,1-3.2,1.7-5,2.1
		c-1.8,0.4-3.7,0.7-5.8,0.7c-6,0-10.9-1.9-14.5-5.8c-3.6-3.9-5.5-9.1-5.5-15.5c0-6.4,1.8-11.6,5.3-15.5c3.6-3.9,8.3-5.8,14.2-5.8
		c5.9,0,10.6,1.9,14.1,5.7c3.4,3.8,5.1,9,5.1,15.6L494.8,90z M485.2,82.4c-1.3-5-4.4-7.5-9.4-7.5c-1.1,0-2.2,0.2-3.2,0.5
		c-1,0.3-1.9,0.8-2.7,1.5c-0.8,0.6-1.5,1.4-2.1,2.3c-0.6,0.9-1,1.9-1.3,3.1H485.2z"/>
	<path class="st2" d="M541.8,90h-28.9c0.2,3.3,1.3,6,3.2,7.9c1.9,1.9,4.4,2.9,7.3,2.9c2.3,0,4.2-0.6,5.8-1.7
		c1.5-1.1,3.2-3.2,5.1-6.1l7.9,4.4c-1.2,2.1-2.5,3.9-3.9,5.3c-1.4,1.5-2.8,2.7-4.4,3.6c-1.5,1-3.2,1.7-5,2.1
		c-1.8,0.4-3.7,0.7-5.8,0.7c-6,0-10.9-1.9-14.5-5.8c-3.6-3.9-5.5-9.1-5.5-15.5c0-6.4,1.8-11.6,5.3-15.5c3.6-3.9,8.3-5.8,14.2-5.8
		c5.9,0,10.6,1.9,14.1,5.7c3.4,3.8,5.1,9,5.1,15.6L541.8,90z M532.2,82.4c-1.3-5-4.4-7.5-9.4-7.5c-1.1,0-2.2,0.2-3.2,0.5
		c-1,0.3-1.9,0.8-2.7,1.5c-0.8,0.6-1.5,1.4-2.1,2.3c-0.6,0.9-1,1.9-1.3,3.1H532.2z"/>
	<path class="st2" d="M581.8,38h9.4v70h-9.4v-4.2c-3.7,3.6-7.8,5.4-12.5,5.4c-5.5,0-10.1-2-13.8-6.1c-3.6-4.1-5.4-9.3-5.4-15.4
		c0-6,1.8-11.1,5.4-15.1c3.6-4.1,8.1-6.1,13.6-6.1c4.7,0,9,1.9,12.7,5.8V38z M559.6,87.7c0,3.9,1,7,3.1,9.5c2.1,2.5,4.8,3.7,8,3.7
		c3.5,0,6.2-1.2,8.4-3.6c2.1-2.5,3.2-5.6,3.2-9.4c0-3.8-1.1-6.9-3.2-9.4c-2.1-2.4-4.9-3.6-8.3-3.6c-3.2,0-5.9,1.2-8,3.6
		C560.7,81.1,559.6,84.1,559.6,87.7z"/>
	<path class="st2" d="M626.4,74.5l-7.7,4.1c-1.2-2.5-2.7-3.7-4.5-3.7c-0.9,0-1.6,0.3-2.2,0.9c-0.6,0.6-0.9,1.3-0.9,2.2
		c0,1.5,1.8,3.1,5.4,4.6c4.9,2.1,8.3,4.1,10,5.9c1.7,1.8,2.6,4.2,2.6,7.3c0,3.9-1.4,7.2-4.3,9.8c-2.8,2.5-6.2,3.7-10.1,3.7
		c-6.8,0-11.6-3.3-14.4-9.9l8-3.7c1.1,1.9,1.9,3.2,2.5,3.7c1.1,1.1,2.5,1.6,4.1,1.6c3.2,0,4.7-1.4,4.7-4.3c0-1.7-1.2-3.2-3.6-4.6
		c-0.9-0.5-1.9-0.9-2.8-1.4c-0.9-0.4-1.9-0.9-2.9-1.4c-2.7-1.3-4.6-2.7-5.7-4c-1.4-1.7-2.1-3.9-2.1-6.5c0-3.5,1.2-6.4,3.6-8.7
		c2.5-2.3,5.4-3.4,9-3.4C620,66.5,623.9,69.2,626.4,74.5z"/>
</g>
</svg>
